<mxfile host="app.diagrams.net" agent="Mozilla/5.0 (Windows NT 10.0; Win64; x64) AppleWebKit/537.36 (KHTML, like Gecko) Chrome/130.0.0.0 YaBrowser/24.12.0.0 Safari/537.36" version="24.7.17">
  <diagram name="Страница — 1" id="YFBFPolIeELKOw44hPbv">
    <mxGraphModel dx="1670" dy="958" grid="1" gridSize="10" guides="1" tooltips="1" connect="1" arrows="1" fold="1" page="1" pageScale="1" pageWidth="827" pageHeight="1169" math="0" shadow="0">
      <root>
        <mxCell id="0" />
        <mxCell id="1" parent="0" />
        <mxCell id="Y8NtodJ1rwprsMgDssrl-5" value="Введите число N&lt;div&gt;(N&amp;gt;1)&lt;/div&gt;" style="html=1;strokeWidth=2;shape=manualInput;whiteSpace=wrap;rounded=1;size=26;arcSize=11;" vertex="1" parent="1">
          <mxGeometry x="362" y="150" width="104" height="90" as="geometry" />
        </mxCell>
        <mxCell id="Y8NtodJ1rwprsMgDssrl-8" style="edgeStyle=orthogonalEdgeStyle;rounded=0;orthogonalLoop=1;jettySize=auto;html=1;entryX=0.5;entryY=0;entryDx=0;entryDy=0;" edge="1" parent="1" source="Y8NtodJ1rwprsMgDssrl-6" target="Y8NtodJ1rwprsMgDssrl-5">
          <mxGeometry relative="1" as="geometry" />
        </mxCell>
        <mxCell id="Y8NtodJ1rwprsMgDssrl-6" value="Start" style="strokeWidth=2;html=1;shape=mxgraph.flowchart.terminator;whiteSpace=wrap;" vertex="1" parent="1">
          <mxGeometry x="364" y="40" width="100" height="60" as="geometry" />
        </mxCell>
        <mxCell id="Y8NtodJ1rwprsMgDssrl-14" style="edgeStyle=orthogonalEdgeStyle;rounded=0;orthogonalLoop=1;jettySize=auto;html=1;entryX=0.5;entryY=0;entryDx=0;entryDy=0;" edge="1" parent="1" target="Y8NtodJ1rwprsMgDssrl-13">
          <mxGeometry relative="1" as="geometry">
            <mxPoint x="414" y="240" as="sourcePoint" />
          </mxGeometry>
        </mxCell>
        <mxCell id="Y8NtodJ1rwprsMgDssrl-16" style="edgeStyle=orthogonalEdgeStyle;rounded=0;orthogonalLoop=1;jettySize=auto;html=1;entryX=0.5;entryY=0;entryDx=0;entryDy=0;" edge="1" parent="1" source="Y8NtodJ1rwprsMgDssrl-11" target="Y8NtodJ1rwprsMgDssrl-12">
          <mxGeometry relative="1" as="geometry" />
        </mxCell>
        <mxCell id="Y8NtodJ1rwprsMgDssrl-11" value="for i in range(1, N)" style="strokeWidth=2;html=1;shape=mxgraph.flowchart.loop_limit;whiteSpace=wrap;" vertex="1" parent="1">
          <mxGeometry x="364" y="380" width="100" height="60" as="geometry" />
        </mxCell>
        <mxCell id="Y8NtodJ1rwprsMgDssrl-12" value="sum = sum + i&amp;nbsp;" style="rounded=1;whiteSpace=wrap;html=1;absoluteArcSize=1;arcSize=14;strokeWidth=2;" vertex="1" parent="1">
          <mxGeometry x="364" y="490" width="100" height="80" as="geometry" />
        </mxCell>
        <mxCell id="Y8NtodJ1rwprsMgDssrl-13" value="sum" style="shape=parallelogram;html=1;strokeWidth=2;perimeter=parallelogramPerimeter;whiteSpace=wrap;rounded=1;arcSize=12;size=0.23;" vertex="1" parent="1">
          <mxGeometry x="364" y="290" width="100" height="60" as="geometry" />
        </mxCell>
        <mxCell id="Y8NtodJ1rwprsMgDssrl-15" style="edgeStyle=orthogonalEdgeStyle;rounded=0;orthogonalLoop=1;jettySize=auto;html=1;entryX=0.5;entryY=0;entryDx=0;entryDy=0;entryPerimeter=0;" edge="1" parent="1" source="Y8NtodJ1rwprsMgDssrl-13" target="Y8NtodJ1rwprsMgDssrl-11">
          <mxGeometry relative="1" as="geometry" />
        </mxCell>
        <mxCell id="Y8NtodJ1rwprsMgDssrl-17" value="конец цикла" style="strokeWidth=2;html=1;shape=mxgraph.flowchart.loop_limit;whiteSpace=wrap;direction=west;" vertex="1" parent="1">
          <mxGeometry x="364" y="630" width="100" height="60" as="geometry" />
        </mxCell>
        <mxCell id="Y8NtodJ1rwprsMgDssrl-18" style="edgeStyle=orthogonalEdgeStyle;rounded=0;orthogonalLoop=1;jettySize=auto;html=1;entryX=0.5;entryY=1;entryDx=0;entryDy=0;entryPerimeter=0;" edge="1" parent="1" source="Y8NtodJ1rwprsMgDssrl-12" target="Y8NtodJ1rwprsMgDssrl-17">
          <mxGeometry relative="1" as="geometry" />
        </mxCell>
        <mxCell id="Y8NtodJ1rwprsMgDssrl-20" value="print(sum)" style="strokeWidth=2;html=1;shape=mxgraph.flowchart.display;whiteSpace=wrap;" vertex="1" parent="1">
          <mxGeometry x="364" y="740" width="100" height="60" as="geometry" />
        </mxCell>
        <mxCell id="Y8NtodJ1rwprsMgDssrl-21" style="edgeStyle=orthogonalEdgeStyle;rounded=0;orthogonalLoop=1;jettySize=auto;html=1;entryX=0.5;entryY=0;entryDx=0;entryDy=0;entryPerimeter=0;" edge="1" parent="1" source="Y8NtodJ1rwprsMgDssrl-17" target="Y8NtodJ1rwprsMgDssrl-20">
          <mxGeometry relative="1" as="geometry" />
        </mxCell>
        <mxCell id="Y8NtodJ1rwprsMgDssrl-22" value="Finish" style="strokeWidth=2;html=1;shape=mxgraph.flowchart.terminator;whiteSpace=wrap;" vertex="1" parent="1">
          <mxGeometry x="364" y="850" width="100" height="60" as="geometry" />
        </mxCell>
        <mxCell id="Y8NtodJ1rwprsMgDssrl-23" style="edgeStyle=orthogonalEdgeStyle;rounded=0;orthogonalLoop=1;jettySize=auto;html=1;entryX=0.5;entryY=0;entryDx=0;entryDy=0;entryPerimeter=0;" edge="1" parent="1" source="Y8NtodJ1rwprsMgDssrl-20" target="Y8NtodJ1rwprsMgDssrl-22">
          <mxGeometry relative="1" as="geometry" />
        </mxCell>
      </root>
    </mxGraphModel>
  </diagram>
</mxfile>
